<svg width="64" height="64" viewBox="0 0 64 64" xmlns="http://www.w3.org/2000/svg">
  <!-- Rock Base -->
  <path d="M4 60 L 60 60 L 56 40 Q 32 32 8 40 Z" fill="#795548"/>
  
  <!-- Brain Coral (Pink) -->
  <circle cx="16" cy="36" r="10" fill="#F48FB1"/>
  <path d="M10 36 Q 16 30 22 36" stroke="#AD1457" stroke-width="2" fill="none"/>
  <path d="M12 32 Q 16 40 20 32" stroke="#AD1457" stroke-width="2" fill="none"/>
  
  <!-- Tube Coral (Orange) -->
  <rect x="36" y="24" width="6" height="20" rx="3" fill="#FFAB91"/>
  <rect x="44" y="16" width="6" height="28" rx="3" fill="#FFAB91"/>
  <rect x="52" y="28" width="6" height="16" rx="3" fill="#FFAB91"/>
  <ellipse cx="39" cy="24" rx="3" ry="1" fill="#D84315"/>
  <ellipse cx="47" cy="16" rx="3" ry="1" fill="#D84315"/>
  <ellipse cx="55" cy="28" rx="3" ry="1" fill="#D84315"/>
  
  <!-- Seaweed (Green) -->
  <path d="M28 60 Q 32 40 24 20" stroke="#00E676" stroke-width="3" fill="none"/>
  <path d="M32 60 Q 28 45 36 30" stroke="#69F0AE" stroke-width="3" fill="none"/>
</svg>
