<svg width="64" height="64" viewBox="0 0 64 64" xmlns="http://www.w3.org/2000/svg">
  <!-- Shark Body (Grey-Blue) -->
  <path d="M4 32 Q 16 16 40 16 Q 60 16 60 32 Q 60 48 40 48 Q 16 48 4 32 Z" fill="#607D8B"/>
  
  <!-- Dorsal Fin -->
  <path d="M32 16 L 24 2 L 40 16 Z" fill="#607D8B"/>
  
  <!-- Tail -->
  <path d="M60 32 L 64 16 L 64 48 Z" fill="#607D8B"/>
  
  <!-- Belly (White) -->
  <path d="M8 36 Q 24 48 40 48 Q 56 48 56 36 L 4 36 Z" fill="#ECEFF1" opacity="0.8"/>
  
  <!-- Mouth/Teeth -->
  <path d="M8 32 L 24 32 L 16 40 Z" fill="#263238"/>
  <path d="M10 32 L 12 36 L 14 32" fill="#FFF"/>
  <path d="M14 32 L 16 36 L 18 32" fill="#FFF"/>
  <path d="M18 32 L 20 36 L 22 32" fill="#FFF"/>
  
  <!-- Eye (Angry) -->
  <circle cx="16" cy="24" r="3" fill="#FFF"/>
  <path d="M12 20 L 20 22" stroke="#000" stroke-width="2"/>
  <circle cx="16" cy="24" r="1" fill="#000"/>
  
  <!-- Gills -->
  <path d="M28 24 L 28 36" stroke="#455A64" stroke-width="2"/>
  <path d="M32 24 L 32 36" stroke="#455A64" stroke-width="2"/>
  <path d="M36 24 L 36 36" stroke="#455A64" stroke-width="2"/>
</svg>
