<svg width="64" height="64" viewBox="0 0 64 64" xmlns="http://www.w3.org/2000/svg" shape-rendering="crispEdges">
  <!-- 16-bit Space Suit (White/Grey) -->
  <rect x="20" y="8" width="24" height="24" fill="#EEEEEE"/> <!-- Helmet -->
  <rect x="24" y="14" width="16" height="12" fill="#212121"/> <!-- Visor -->
  <rect x="26" y="16" width="4" height="4" fill="#4FC3F7" opacity="0.6"/> <!-- Reflection -->
  
  <rect x="16" y="32" width="32" height="20" fill="#E0E0E0"/> <!-- Body -->
  <rect x="24" y="36" width="16" height="12" fill="#BDBDBD"/> <!-- Chest panel -->
  <rect x="26" y="38" width="4" height="4" fill="#F44336"/> <!-- Button 1 -->
  <rect x="34" y="38" width="4" height="4" fill="#2196F3"/> <!-- Button 2 -->
  
  <rect x="12" y="32" width="4" height="16" fill="#EEEEEE"/> <!-- Left Arm -->
  <rect x="48" y="32" width="4" height="16" fill="#EEEEEE"/> <!-- Right Arm -->
  
  <rect x="20" y="52" width="8" height="12" fill="#EEEEEE"/> <!-- Left Leg -->
  <rect x="36" y="52" width="8" height="12" fill="#EEEEEE"/> <!-- Right Leg -->
  
  <rect x="18" y="60" width="10" height="4" fill="#9E9E9E"/> <!-- Left Boot -->
  <rect x="36" y="60" width="10" height="4" fill="#9E9E9E"/> <!-- Right Boot -->
  
  <rect x="12" y="44" width="4" height="4" fill="#BDBDBD"/> <!-- Left Glove -->
  <rect x="48" y="44" width="4" height="4" fill="#BDBDBD"/> <!-- Right Glove -->
  
  <!-- Backpack / Life Support -->
  <rect x="14" y="20" width="6" height="20" fill="#9E9E9E"/>
  <rect x="44" y="20" width="6" height="20" fill="#9E9E9E"/>
</svg>
