<svg width="64" height="64" viewBox="0 0 64 64" xmlns="http://www.w3.org/2000/svg" shape-rendering="crispEdges">
  <!-- 16-bit Alien (Green) -->
  <rect x="16" y="8" width="32" height="28" fill="#43A047"/> <!-- Head -->
  
  <!-- Eyes -->
  <rect x="20" y="20" width="8" height="8" fill="#212121"/>
  <rect x="36" y="20" width="8" height="8" fill="#212121"/>
  <rect x="22" y="22" width="2" height="2" fill="#FFFFFF"/>
  <rect x="38" y="22" width="2" height="2" fill="#FFFFFF"/>
  
  <!-- Antennae -->
  <rect x="12" y="12" width="4" height="8" fill="#2E7D32"/>
  <rect x="48" y="12" width="4" height="8" fill="#2E7D32"/>
  <rect x="12" y="4" width="4" height="8" fill="#43A047"/>
  <rect x="48" y="4" width="4" height="8" fill="#43A047"/>
  
  <!-- Body -->
  <rect x="20" y="36" width="24" height="16" fill="#2E7D32"/>
  
  <!-- Arms (Long) -->
  <rect x="12" y="38" width="8" height="16" fill="#43A047"/>
  <rect x="44" y="38" width="8" height="16" fill="#43A047"/>
  
  <!-- Legs -->
  <rect x="22" y="52" width="6" height="12" fill="#1B5E20"/>
  <rect x="36" y="52" width="6" height="12" fill="#1B5E20"/>
  
  <!-- Mouth (Pixelated) -->
  <rect x="26" y="30" width="12" height="2" fill="#1B5E20"/>
</svg>
