<svg width="64" height="64" viewBox="0 0 64 64" xmlns="http://www.w3.org/2000/svg">
  <!-- Building -->
  <rect x="12" y="4" width="40" height="60" fill="#546E7A"/>
  
  <!-- Roof -->
  <rect x="16" y="0" width="32" height="4" fill="#37474F"/>
  <rect x="28" y="-4" width="8" height="4" fill="#37474F"/>
  <line x1="32" y1="-4" x2="32" y2="-10" stroke="#CFD8DC" stroke-width="2"/> <!-- Antenna -->
  <circle cx="32" cy="-10" r="1" fill="#F44336"/>
  
  <!-- Windows (Grid) -->
  <g fill="#90A4AE">
    <rect x="16" y="8" width="8" height="8" rx="1"/>
    <rect x="28" y="8" width="8" height="8" rx="1" fill="#FFEB3B"/> <!-- Lit window -->
    <rect x="40" y="8" width="8" height="8" rx="1"/>
    
    <rect x="16" y="20" width="8" height="8" rx="1"/>
    <rect x="28" y="20" width="8" height="8" rx="1"/>
    <rect x="40" y="20" width="8" height="8" rx="1"/>
    
    <rect x="16" y="32" width="8" height="8" rx="1" fill="#FFEB3B"/>
    <rect x="28" y="32" width="8" height="8" rx="1"/>
    <rect x="40" y="32" width="8" height="8" rx="1"/>
    
    <rect x="16" y="44" width="8" height="8" rx="1"/>
    <rect x="28" y="44" width="8" height="8" rx="1"/>
    <rect x="40" y="44" width="8" height="8" rx="1" fill="#FFEB3B"/>
    
    <rect x="16" y="56" width="8" height="8" rx="1"/>
    <rect x="28" y="56" width="8" height="8" rx="1"/>
    <rect x="40" y="56" width="8" height="8" rx="1"/>
  </g>
</svg>
