<svg width="64" height="64" viewBox="0 0 64 64" xmlns="http://www.w3.org/2000/svg">
  <!-- Oven Body -->
  <path d="M8 60 L56 60 L56 20 Q 32 0 8 20 Z" fill="#3E2723" stroke="#2D1B18" stroke-width="2"/>
  
  <!-- Bricks -->
  <path d="M16 20 h10 M38 20 h10" stroke="#5D4037" stroke-width="2"/>
  <path d="M12 30 h12 M36 30 h12" stroke="#5D4037" stroke-width="2"/>
  <path d="M16 40 h10 M38 40 h10" stroke="#5D4037" stroke-width="2"/>
  <path d="M10 50 h5 M25 50 h5 M45 50 h5" stroke="#5D4037" stroke-width="2"/>
  
  <!-- Opening -->
  <path d="M20 60 L44 60 L44 35 Q 32 25 20 35 Z" fill="#000000"/>
  
  <!-- Fire -->
  <path d="M24 60 L24 45 Q 26 35 28 45 Q 30 55 32 40 Q 34 55 36 45 Q 38 35 40 45 L40 60 Z" fill="#FF5722">
    <animate attributeName="d" values="M24 60 L24 45 Q 26 35 28 45 Q 30 55 32 40 Q 34 55 36 45 Q 38 35 40 45 L40 60 Z; M24 60 L24 44 Q 26 34 28 46 Q 30 54 32 38 Q 34 54 36 46 Q 38 34 40 44 L40 60 Z; M24 60 L24 45 Q 26 35 28 45 Q 30 55 32 40 Q 34 55 36 45 Q 38 35 40 45 L40 60 Z" dur="0.5s" repeatCount="indefinite"/>
  </path>
  <path d="M26 60 L26 50 Q 28 40 32 50 Q 36 40 38 50 L38 60 Z" fill="#FFEB3B" opacity="0.8">
     <animate attributeName="d" values="M26 60 L26 50 Q 28 40 32 50 Q 36 40 38 50 L38 60 Z; M26 60 L26 48 Q 28 42 32 48 Q 36 42 38 48 L38 60 Z; M26 60 L26 50 Q 28 40 32 50 Q 36 40 38 50 L38 60 Z" dur="0.5s" repeatCount="indefinite"/>
  </path>
</svg>
