<svg width="64" height="64" viewBox="0 0 64 64" xmlns="http://www.w3.org/2000/svg">
  <!-- Leaves -->
  <path d="M32 4 L24 20 L32 20 L32 4 Z" fill="#43A047"/>
  <path d="M32 4 L40 20 L32 20 L32 4 Z" fill="#66BB6A"/>
  <path d="M32 8 L18 22 L32 22 Z" fill="#43A047"/>
  <path d="M32 8 L46 22 L32 22 Z" fill="#66BB6A"/>

  <!-- Body -->
  <rect x="18" y="20" width="28" height="38" rx="8" ry="8" fill="#FDD835" stroke="#FBC02D" stroke-width="2"/>
  
  <!-- Texture (Diagonal lines for pineapple texture) -->
  <path d="M22 24 L30 32 M34 36 L42 44" stroke="#F9A825" stroke-width="2" opacity="0.6"/>
  <path d="M30 24 L38 32 M42 36 L44 38" stroke="#F9A825" stroke-width="2" opacity="0.6"/>
  <path d="M38 24 L44 30" stroke="#F9A825" stroke-width="2" opacity="0.6"/>
  <path d="M18 36 L26 44" stroke="#F9A825" stroke-width="2" opacity="0.6"/>
  
  <!-- Cross hatching -->
  <path d="M42 24 L34 32 M30 36 L22 44" stroke="#F9A825" stroke-width="2" opacity="0.6"/>
  <path d="M34 24 L26 32 M22 36 L20 38" stroke="#F9A825" stroke-width="2" opacity="0.6"/>
  <path d="M26 24 L20 30" stroke="#F9A825" stroke-width="2" opacity="0.6"/>
  <path d="M46 36 L38 44" stroke="#F9A825" stroke-width="2" opacity="0.6"/>
  
  <!-- Little spikes/details -->
  <circle cx="32" cy="32" r="1.5" fill="#F57F17"/>
  <circle cx="32" cy="44" r="1.5" fill="#F57F17"/>
  <circle cx="24" cy="38" r="1.5" fill="#F57F17"/>
  <circle cx="40" cy="38" r="1.5" fill="#F57F17"/>
</svg>
